<?xml version="1.0" encoding="utf-8"?>
<!-- Generator: Adobe Illustrator 24.0.1, SVG Export Plug-In . SVG Version: 6.00 Build 0)  -->
<svg version="1.1" id="Calque_1" xmlns="http://www.w3.org/2000/svg" xmlns:xlink="http://www.w3.org/1999/xlink" x="0px" y="0px"
	 viewBox="0 0 512 512" style="enable-background:new 0 0 512 512;" xml:space="preserve">
<style type="text/css">
	.st0{fill:#F5C0C1;}
	.st1{display:none;}
	.st2{display:inline;}
	.st3{fill:#D2898B;}
	.st4{fill:#211F42;}
</style>
<path class="st0" d="M256,0L256,0c141.4,0,256,114.6,256,256v0c0,141.4-114.6,256-256,256h0C114.6,512,0,397.4,0,256v0
	C0,114.6,114.6,0,256,0z"/>
<g transform="matrix(0.9999999403953552, 0, 0, 0.9999999403953552, -10.999996185302734, -9.76823902130127)" class="st1">
	<g transform="matrix(2.550992488861084, 0, 0, 2.550992488861084, 135.7596435546875, 57.61586380004883)" class="st2">
		<path class="st3" d="M48.1,71.2c0,0.1-0.1,0.1-0.1,0.2c-0.5,0.2-1,0.5-1.4,1c-0.4,0.5-0.8,1.1-0.9,1.7c0,0.1-0.1,0.1-0.2,0.2
			c0,0,0,0,0,0c-0.1,0-0.1,0-0.2-0.1c-0.5-0.7-0.4-1.7,0.3-2.5c0.4-0.5,1-0.8,1.6-0.8c0.3,0,0.5,0.1,0.7,0.2
			C48,71,48.1,71.1,48.1,71.2z M89.9,57.4c0,1.5-0.4,2.7-1,3.4c-0.4,0.4-0.9,0.6-1.4,0.6l0,0c-0.2,0-0.4,0-0.5-0.1
			c-0.7-0.2-1.2-0.7-1.6-1.4c-0.8,1-1.7,1.6-2.6,1.6l0,0c-0.5,0-1-0.2-1.4-0.6c-1.1-1.2-0.7-3.7,0.4-5.5c0.6-1,1.3-1.7,2-2.1
			c-0.8-0.7-2.2-1.2-3.7-1.2c0,0,0,0-0.1,0c0,0,0,0,0,0c0,0.1,0.1,0.1,0.1,0.2c0,0.1,0.1,0.1,0.1,0.2c0,0,0.1,0.1,0.1,0.1
			c0,0.1,0.1,0.2,0.1,0.2c0,0,0,0.1,0,0.1c0,0.1,0.1,0.2,0.1,0.3c0,0,0,0,0,0.1c0,0.1,0,0.2,0,0.3c0,0.7-0.3,1.4-0.9,2
			C78.4,61.5,76,66.7,72.7,71c4.3,1.1,9.8,3.7,10.5,9.1c0.5,3.8-6.9,4-7.2,1.2c-0.4-3.6-3.3-6.1-5.6-7.5c-0.5,0.5-0.9,1-1.4,1.4
			c-1.5,1.4-3.1,2.6-4.8,3.6V82c0,0.7-0.2,1.3-0.5,1.9c0.4,0.4,0.8,0.7,1.3,0.8c0.4,0.1,1.3,0.4,1.8-0.7c0.4-1.4,1.9-2.3,3.4-1.9
			c1.5,0.4,2.4,1.9,2,3.4L72,85.9L71.9,86c-0.8,2-3,4.5-6.5,4.5c-0.7,0-1.4-0.1-2.1-0.3c-1.8-0.5-3.1-1.5-4.2-2.7
			c-0.1,0-0.1,0.1-0.2,0.1c0.9,1.6,2.6,4.3,5.1,5.9c0.6,0.4,1.3,1.1,1,1.8c-0.4,1.1-1.7,0.7-3,1.6c-1.2,0.8-2.5,1.6-3.3,1.6
			c-1.8,0-3.5-2.4-4.3-5.8c-0.4-1.7-0.7-2.8-0.9-3.6c-1.3,0.2-2.6,0.3-4,0.3c-1.9,0-3.6-0.2-5.3-0.5c-0.2,0.7-0.4,2.1-0.8,4.1
			c-0.7,3.4-2.2,5.8-4,5.8c-0.8,0-2.1-0.7-3.3-1.6c-1.3-0.9-2.5-0.5-3-1.6c-0.3-0.6,0.4-1.4,0.9-1.8c2.7-1.9,4.5-5.3,5.1-6.8
			C36.6,85.8,35,84,35,82v-3.3c-1.6-1-3.1-2.1-4.5-3.5c-0.8-0.7-1.5-1.5-2.2-2.3c-0.3,0.2-0.6,0.5-0.8,0.7c-1.6,1.2-1.7,1.5-1.7,2.2
			s0.2,0.9,1.7,2.2c1.6,1.2,3.9,3.1,3.9,6.6c0,1.6-1.3,2.8-2.8,2.8s-2.8-1.3-2.8-2.8c0-0.6-0.2-0.9-1.7-2.2c-1.2-1-2.9-2.3-3.6-4.6
			c-0.3,0.5-0.5,1-0.7,1.6c-0.9,2.7-8.1,0.9-6.8-2.7c1.5-4.3,5.9-5.9,9.8-6.5c0.5-0.4,0.9-0.8,1.4-1.1c0.4-0.3,0.7-0.5,0.9-0.7
			c-1-1.6-1.9-3.3-2.7-5.1c-1.1-1.2-2.2-2.8-2.2-5.1c0-0.4,0-0.8,0.1-1.2c-0.1-0.4-0.2-0.9-0.3-1.3c-0.1-0.1-0.1-0.1-0.2-0.2
			c0,0,0,0,0,0c-0.1-0.1-0.1-0.1-0.2-0.2c0,0,0,0,0,0c-0.2-0.2-0.3-0.5-0.4-0.7c0,0,0,0,0-0.1c0-0.1,0-0.1,0-0.2c0,0,0,0,0-0.1
			c0-0.1,0-0.1,0-0.2c0,0,0,0,0-0.1c0-0.1,0-0.2,0-0.2c0-0.1,0-0.2,0-0.3c0,0,0,0,0-0.1c0-0.1,0-0.1,0-0.2c0,0,0,0,0,0
			c0.1-0.5,0.4-1,0.9-1.5c0,0,0,0,0,0c0,0,0,0,0,0c0.2-0.2,0.4-0.3,0.6-0.5c0.3-1,0.7-1.8,1.1-2.7c-3.7-0.8-6.8-3.3-8.3-6.8
			c-0.5-1.3-0.7-2.5-0.7-3.5c-1.1-0.9-1.7-2.8-1.7-4.5c0-1.5,0.4-2.7,1.1-3.4c0.5-0.5,1.2-0.7,1.9-0.5c0.7,0.2,1.2,0.7,1.6,1.4
			c0.8-1,1.7-1.6,2.6-1.6c0.5,0,1,0.2,1.4,0.6c1.1,1.2,0.6,3.7-0.4,5.5c-0.6,1-1.3,1.7-2,2.1c0.8,0.7,2.2,1.2,3.7,1.2
			c0.9,0,1.8-0.2,2.5-0.5c1.4-0.6,1.9-2.1,2-3.2c0-0.6,0.5-1.4,1.8-1.4c0.2,0,0.3,0,0.4,0c0.2,0,1,0,2,0.1c-1-2.9-0.9-5.7,0.6-7.8
			c1.5-2.2,4.2-3.4,7.7-3.4L32.9,4.5c-0.4-1.5,0.5-2.9,2-3.3c1.5-0.4,2.9,0.5,3.3,2l5.1,20.8c1.7,0.6,3.3,1.5,4.9,2.5
			c3.8,2.6,6,5.8,6.3,9.1c0.1,0,0.2,0,0.4,0c-0.2-0.9,0-1.8,0.5-2.6c0.5-0.9,1.3-1.5,2.3-1.8c0.2-0.6,0.5-1.2,1-1.6l7.8-17
			c0.6-1.4,2.3-1.9,3.6-1.3c1.4,0.6,1.9,2.3,1.3,3.6l-6.1,12.6c0.9,0.1,1.8,0.5,2.4,1.1c1-0.2,2-0.1,2.8,0.4
			c0.9,0.5,1.5,1.3,1.8,2.3c0.9,0.3,1.7,0.9,2.2,1.8c0.5,0.9,0.6,1.9,0.4,2.9c0.7,0.7,1.1,1.7,1.1,2.7c0,1-0.4,2-1.1,2.7
			c0.1,0.4,0.1,0.8,0.1,1.2c0.5-0.1,1-0.1,1.4-0.1c4.9,0,9.2,2.8,11.1,7c0.5,1.3,0.7,2.5,0.7,3.5C89.3,53.8,89.9,55.7,89.9,57.4z
			 M18.6,79.1c-0.1-0.2-0.3-0.4-0.6-0.3c-0.5,0.1-1.1,0.1-1.7,0c-0.8-0.2-1.5-0.7-1.9-1.3c-0.1-0.1-0.2-0.2-0.4-0.2
			c-0.1,0-0.2,0-0.3,0.1c-0.2,0.1-0.3,0.4-0.2,0.6c0.5,0.8,1.4,1.4,2.4,1.7c0.8,0.2,1.5,0.2,2.2,0C18.5,79.7,18.7,79.4,18.6,79.1z
			 M38.6,95.9c-1.1-0.8-2.4-1.3-3.8-1.5c-0.2,0-0.4,0.1-0.4,0.3c0,0.2,0.1,0.4,0.3,0.4c1.3,0.1,2.5,0.6,3.4,1.3
			c0.1,0.1,0.2,0.1,0.3,0.1c0.1,0,0.2-0.1,0.3-0.1C38.8,96.3,38.8,96.1,38.6,95.9z M59.5,96.1c0.1,0.1,0.2,0.1,0.3,0.1
			c0.1,0,0.2,0,0.2-0.1c0.9-0.7,2.1-1.2,3.4-1.3c0.2,0,0.3-0.2,0.3-0.4s-0.2-0.4-0.4-0.3c-1.4,0.1-2.7,0.6-3.8,1.5
			C59.4,95.7,59.4,95.9,59.5,96.1z M77.2,81.9c0.6,0.3,1.4,0.5,2.2,0.5c1.1,0,2.1-0.5,2.7-1.2c0.2-0.2,0.2-0.5,0-0.7
			c-0.1-0.1-0.1-0.1-0.2-0.1c-0.2,0-0.3,0-0.4,0.1c-0.5,0.5-1.2,0.8-2.1,0.9c-0.6,0-1.2-0.1-1.7-0.4c-0.2-0.1-0.5,0-0.6,0.2
			C76.9,81.5,77,81.8,77.2,81.9z M74.1,44.6c-0.1,0.1-0.2,0.3-0.4,0.4c0.4,0.3,0.8,0.7,1.2,1.1l-0.2-1.6
			C74.5,44.5,74.3,44.6,74.1,44.6z M65,29.4c-0.3,0-0.5,0.1-0.7,0.2l-2.1,4.3c2.1-0.9,4.1-0.5,5.5,0.5c2.3,1.7,3.2,4.6,2,6.8
			c-0.1,0.1-0.1,0.2-0.2,0.4c0.9,0.9,1.2,1.3,1.3,1.5c0.4,0.2,0.9,0.5,1.3,0.8c0.3-0.2,0.6-0.4,0.8-0.7c0.3-0.5,0.3-1.2,0.1-1.7
			c-0.2-0.4-0.1-1,0.3-1.2c0.5-0.4,0.8-0.9,0.8-1.6c0-0.6-0.3-1.2-0.8-1.5c-0.4-0.3-0.5-0.8-0.3-1.2c0.3-0.6,0.2-1.2-0.1-1.8
			c-0.3-0.5-0.8-0.9-1.5-0.9c-0.5,0-0.9-0.4-0.9-0.9c-0.1-0.6-0.4-1.2-0.9-1.5c-0.5-0.3-1.2-0.3-1.7-0.1c-0.4,0.2-1,0.1-1.2-0.3
			C66.2,29.7,65.6,29.4,65,29.4z M68,40.1c0.7-1.4-0.2-3.2-1.4-4.1c-1.5-1-3.2-0.9-4.7,0.5c0.9,0.3,1.8,0.7,2.7,1.2
			C65.7,38.3,66.9,39.1,68,40.1z M63.5,39.4c-1.1-0.6-2.2-1-3.4-1.3l-0.9,1.8c1,0.3,2.1,0.6,3,1.1c0.8,0,1.7,0,2.5,0.2
			c0.6,0.1,1.2,0.2,1.7,0.3C65.6,40.7,64.6,39.9,63.5,39.4z M52.1,48.5c0.2,0.1,0.4,0.2,0.6,0.3l17-34.9c0.2-0.3,0-0.8-0.3-0.9
			s-0.8,0-1,0.3L52.1,48.5z M49.9,57c0.4,0.6,0.8,1.2,1.2,1.8c0.8,0,1.5,0,2.3,0c-0.7-1.4-1.6-2.7-2.6-3.9
			C50.6,55.6,50.3,56.3,49.9,57z M51.2,45c0.2-0.2,0.4-0.4,0.6-0.6l1.2-2.6c0,0-0.1,0-0.1,0c-1,0.3-1.9,0.6-2.8,1.1
			C50.5,43.5,50.9,44.2,51.2,45z M53.7,54.7c0.2-0.6,0.5-1.1,0.9-1.6c0-0.1-0.1-0.3-0.1-0.4c-0.9-0.8-1.8-1.5-2.8-2.1
			c-0.1,0.7-0.2,1.4-0.4,2.2C52.2,53.3,53,54,53.7,54.7z M54.9,50.5c0-0.1,0.1-0.1,0.1-0.2c0.5-0.8,1.2-1.4,2.1-1.7h0
			c0.1,0,0.2-0.1,0.2-0.1c0.1-0.2,0.1-0.4,0.2-0.5c-0.8,0.3-1.5,0.8-2.3,1.3c-0.2,0.2-0.5,0.3-0.7,0.4L54.3,50
			C54.5,50.1,54.7,50.3,54.9,50.5z M51.9,37.9c-1.6,0.4-3.2,1.1-4.6,2l0.2,0.8c0.2,0.1,0.4,0.2,0.5,0.3c0.2,0.1,0.4,0.3,0.6,0.4
			c1.2-0.7,2.4-1.2,3.7-1.6c0.5-0.1,1.1-0.2,1.6-0.3l1-2.1C53.9,37.5,52.9,37.7,51.9,37.9z M46.7,37.5l0.1,0.4
			c0.2-0.1,0.4-0.2,0.6-0.3C47.1,37.6,46.9,37.5,46.7,37.5z M48.3,35.7c0-1.4-0.6-2.7-1.8-3.5c-0.4-0.3-0.8-0.5-1.2-0.6l0.9,3.8
			C46.9,35.5,47.6,35.6,48.3,35.7z M43.9,26.3l0.8,3.2c1,0.1,2,0.4,2.9,1c1.9,1.3,2.9,3.5,2.6,5.7c0.1,0,0.1,0,0.2,0.1
			c0.3-0.1,0.6-0.2,0.9-0.3c0.4-0.1,0.8-0.2,1.2-0.3c-0.3-2.7-2.2-5.4-5.5-7.7C46.1,27.4,45,26.8,43.9,26.3z M44.5,40
			c0.2,0,0.5,0,0.7,0.1l-9-36.5c-0.1-0.4-0.5-0.6-0.9-0.5c-0.4,0.1-0.6,0.5-0.5,0.9L44.5,40z M31.4,47.6c0.5,0.1,1.1-0.2,1.2-0.8
			c0.1-0.5-0.2-1.1-0.8-1.2c-0.5-0.1-1.1-0.2-1.6-0.2c-3.9,0-7.2,3.1-7.9,7.3c0,0.1,0,0.2,0,0.3c0.4-0.4,1.2-1,2.3-1.3
			c0.9-2.6,3.1-4.3,5.6-4.3C30.6,47.5,31,47.5,31.4,47.6z M30.9,49.5c-0.2-0.1-0.5-0.1-0.8-0.1c-1.4,0-2.7,0.9-3.4,2.3
			c0.6,0.1,1.2,0.4,1.7,0.7c0.4-0.7,1.1-1.1,2.1-1.4c0.2-0.5,0.5-1,0.7-1.5C31.1,49.6,31,49.5,30.9,49.5z M33.9,44.7
			c0.2-0.3,0.4-0.5,0.5-0.6c1.8-1.9,4-3.3,6.5-4.1c0.5-0.2,1-0.3,1.5-0.4l-0.5-1.9c-0.5,0.1-1.1,0.2-1.6,0.4
			c-2.7,0.8-5.4,2.3-7.3,4.6c-0.4,0.4-0.6,0.7-0.7,1c0,0,0.1,0,0.1,0C32.9,43.9,33.5,44.2,33.9,44.7z M40,36.1
			c0.4-0.1,0.9-0.2,1.3-0.3l-0.7-2.5C40.1,34.2,39.9,35.1,40,36.1z M34.8,38.5c1-0.7,2.1-1.3,3.2-1.7c-0.3-1.6,0-3.3,1-4.6
			c0.3-0.4,0.6-0.8,1-1.1l-1.7-6.2c-0.1,0-0.3,0-0.4,0c-2.8-0.1-5,0.8-6.1,2.5C29.9,30.1,31.1,34.6,34.8,38.5z M16.5,34.7
			c0,0.4,0,0.9-0.1,1.3c0.3-0.2,0.7-0.6,1.1-1.2c0.9-1.5,0.9-2.8,0.7-3.1c-0.2,0.1-0.8,0.4-1.4,1.4c-0.1,0.2-0.2,0.4-0.3,0.6
			C16.5,34,16.5,34.3,16.5,34.7z M14.5,34.7c0-1.7-0.7-2.8-1-3c-0.2,0.2-0.5,0.8-0.5,2c0,1.7,0.7,2.8,1,3
			C14.2,36.5,14.5,35.9,14.5,34.7z M23.1,46.6c0.3-0.3,0.6-0.6,1-0.9l-0.4-2.8c-0.1-0.5,0.3-1.1,0.8-1.1c0.5-0.1,1.1,0.3,1.1,0.8
			l0.3,1.9c1.2-0.6,2.5-1,3.9-1c0.2-0.3,0.5-0.7,0.9-1.2l-2-1.5c-0.4-0.3-0.5-1-0.2-1.4s1-0.5,1.4-0.2l2.1,1.6
			c0.4-0.4,0.8-0.7,1.2-1c-1.1-1.2-2-2.4-2.7-3.7c-1.1-0.1-2.2-0.1-3.1-0.1c0,0,0,0-0.1,0c-0.3,2-1.5,3.7-3.1,4.4
			c-1,0.4-2.1,0.7-3.3,0.7c-2.5,0-4.8-1-5.9-2.6c-0.1,0.1-0.2,0.1-0.4,0.2c0,0.7,0.2,1.5,0.5,2.3c0.4,1,1.1,2,1.8,2.8l1.1-1.4
			c0.3-0.4,1-0.5,1.4-0.2c0.4,0.3,0.5,1,0.2,1.4L18.6,45C19.9,45.8,21.4,46.4,23.1,46.6z M29.6,66.9c0-2.7-1.7-4-3.2-5.2
			c-1.5-1.2-2.4-2-2.4-3.6c0-1,0.3-1.6,0.9-2.3c0.3-0.2,0.5-0.4,0.9-0.4c0.6,0,1.1,0.5,1.1,1.1c0,0,0,0,0,0c0.6,0.2,1.3,0.3,2,0.5
			c0-0.2,0-0.3,0-0.5c0-1.7-1.4-3.1-3.1-3.1c0,0-0.1,0-0.1,0c-1.4,0-2.4,1.1-2.4,1.1l0,0c-0.8,0.9-1.4,2-1.4,3.6
			c0,2.7,1.7,4,3.2,5.2c1.5,1.2,2.4,2,2.4,3.6s-0.9,2.4-2.4,3.6c-1.5,1.2-3.2,2.5-3.2,5.2c0,2.7,1.7,4,3.2,5.2
			c1.5,1.2,2.4,2,2.4,3.6c0,0.6,0.4,1,1,1s1-0.4,1-1c0-2.7-1.7-4-3.2-5.2c-1.5-1.2-2.4-2-2.4-3.6c0-1.6,0.9-2.4,2.4-3.6
			C27.9,71,29.6,69.6,29.6,66.9z M60,82c-1.8-2.9-3.8-6.2-8.5-7.3c-0.5-0.1-1.1,0.2-1.2,0.7c-0.1,0.5,0.2,1.1,0.7,1.2
			c3.9,1,5.6,3.7,7.3,6.4c1.4,2.3,2.8,4.6,5.6,5.4c0.6,0.2,1.1,0.2,1.7,0.2c2.7,0,4.3-2,4.8-3.3c0.2-0.5-0.1-1.1-0.6-1.3
			c-0.5-0.2-1.1,0-1.3,0.6c-0.1,0.3-1.2,2.7-4,1.9C62.4,86,61.3,84.1,60,82z M61.5,81.1c0.2,0.3,0.4,0.6,0.6,0.9v-2
			c-0.3,0.2-0.6,0.3-1,0.5C61.3,80.7,61.4,80.9,61.5,81.1z M77.1,57.2c-1.5,0.7-3.6,1.3-6.2,1.8c-2,0.4-4.3,0.8-6.7,1.1
			c-0.5-1.7-1.3-3.1-2.4-3.8c0.2-0.4,0.6-0.8,1.3-1.2c0.5-0.2,1.1,0,1.3,0.5c0.2,0.5,0,1.1-0.5,1.3c-0.2,0.1-0.5,0.3-0.5,0.5
			c0,0.2,0,0.4,0.2,0.7c0.1,0,0.1,0,0.2,0c0.2,0,0.4,0,0.6-0.1c0.1,0,0.2,0,0.3,0c0.9-0.1,1.9-0.2,2.7-0.4c0.8-1.4-0.1-3.3-1.4-4.2
			c-1.7-1.2-3.7-0.8-5.4,1.1c-0.4,0.4-1,0.4-1.4,0.1s-0.4-1-0.1-1.4c2.9-3.2,6.1-2.9,8.1-1.4c1.9,1.3,2.8,3.5,2.4,5.4
			c0.3-0.1,0.5-0.1,0.8-0.2c0.3-0.1,0.5-0.1,0.8-0.2c0.1,0,0.1,0,0.2,0c0.2-0.1,0.5-0.1,0.7-0.2c0,0,0,0,0,0
			c0.2-0.1,0.5-0.1,0.7-0.2c0,0,0.1,0,0.1,0c0.2-0.1,0.4-0.1,0.6-0.2c0,0,0,0,0,0c0-0.1,0-0.2,0-0.4c0-0.6-0.3-1.2-0.8-1.5
			c-0.4-0.3-0.5-0.8-0.3-1.2c0.3-0.6,0.2-1.2-0.1-1.8c-0.3-0.5-0.8-0.9-1.5-0.9c-0.5,0-0.9-0.4-0.9-0.9c-0.1-0.6-0.4-1.2-0.9-1.5
			c-0.5-0.3-1.2-0.3-1.7-0.1c-0.4,0.2-1,0.1-1.2-0.3c-0.4-0.5-0.9-0.8-1.6-0.8c-0.6,0-1.2,0.3-1.5,0.8c-0.3,0.4-0.8,0.5-1.2,0.3
			c-0.6-0.3-1.2-0.2-1.8,0.1c-0.5,0.3-0.9,0.8-0.9,1.5c0,0.5-0.4,0.9-0.9,0.9c-0.2,0-0.3,0-0.5,0.1v0c-0.4,0.1-0.8,0.4-1,0.8
			c-0.3,0.5-0.3,1.2-0.1,1.7c0.2,0.4,0.1,1-0.3,1.2c-0.5,0.4-0.8,0.9-0.8,1.6c0,0.6,0.3,1.2,0.8,1.5c0.1,0.1,0.2,0.2,0.3,0.3
			c-0.5,0.8-0.9,1.8-1.2,3c-1.8,0.1-3.7,0.1-5.7,0.1c-1,0-2,0-2.9,0c-0.2-0.7-0.4-1.4-0.7-2c0.2,0,0.3,0,0.5,0
			c0.2-0.2,0.3-0.5,0.5-0.7c1.8-3.1,2.8-6.4,2.7-9.3c-0.1-2.8-1.1-4.9-2.9-6c-0.8-0.5-1.7-0.7-2.7-0.7c0,0-0.4,0-0.8,0
			c-3.5,0.4-7.5,3.4-10.1,7.8c-1.6,2.7-2.4,5.4-2.1,7.7c0.8,0.1,1.6,0.2,2.4,0.4c0,0,0,0,0,0c-0.1-0.3-0.2-0.5-0.3-0.8
			c-0.4-1.6-0.2-3.3,0.7-4.7c1.1-1.8,3.1-3,5.3-3c1.1,0,2.2,0.3,3.2,0.9c2.5,1.5,3.5,4.4,2.7,7.1c-0.5-0.7-1.1-1.2-1.7-1.4
			c0.1-1.5-0.6-3.1-2-3.9c-0.6-0.4-1.4-0.6-2.1-0.6c-1.5,0-2.8,0.8-3.6,2c-0.6,1-0.7,2.1-0.5,3.1c0.2,0.6,0.4,1.2,0.8,1.6
			c0,0,0,0,0,0c0.4,0,0.9,0.1,1.4,0.1c0,0,0.1,0,0.1,0c0.3,0,0.6,0,0.9,0.1c-0.3,0.6-0.5,1.2-0.7,2c-2.9-0.3-5.6-0.6-8-1.1
			c0,0,0,0,0,0c-0.1,0-0.1,0-0.2,0c-0.1,0-0.2,0-0.3-0.1c-0.2,0-0.5-0.1-0.7-0.1c-0.1,0-0.1,0-0.2,0l0,0c-0.6-0.1-1.3-0.3-1.8-0.4
			c-0.4-0.1-0.7,0.6,0.2,1.4c0.2,0.2,0.5,0.4,0.9,0.6c1.5,1.2,3.6,3,3.6,6.4c0,2-0.7,3.5-1.7,4.6c4,4.5,9,7.6,14.6,8.9
			c-0.1,0.5-0.2,1.1-0.2,1.7c0,0,0,0.2,0,0.4c-2.5-0.5-4.9-1.4-7.1-2.5V82c0,2.5,5.1,5.2,12.5,5.2c3.3,0,6.2-0.6,8.3-1.4
			c-0.4-0.6-0.8-1.2-1.2-1.9c-0.6-1-1.1-1.9-1.8-2.7c0,0.2,0,0.5,0,0.7c0,0.8-0.3,2.4-0.8,2.2l-3.9-1.6c-0.1,0-0.1,0-0.2-0.1
			c0,0-0.1,0.1-0.2,0.1l-3.9,1.6c-0.5,0.1-0.8-1.4-0.8-2.2c0-1.1,0.3-2.3,0.8-2.2l4,1.8c0,0,0,0,0.1,0c0,0,0,0,0.1,0l3.6-1.6
			c-0.5-0.4-1-0.8-1.6-1.1c-0.2,0.1-0.5,0.1-0.7,0.1h-0.8c-2,0-3.1-2.2-3.1-3.9s1.4-3.1,3.1-3.1h0.8c1.1,0,2.1,0.6,2.7,1.6
			c2.8,1.2,4.5,3.2,5.9,5C68.1,75.1,74.5,67.3,77.1,57.2z M77.2,52.4c-2.6-5.2-7.2-8.5-12.6-9.3c-1.7-0.2-3.4-0.2-5,0.1
			c-0.7,0.1-1.5,0.3-2.2,0.6L56,46.5c1.2-0.6,2.5-1,3.8-1.3c1.2-0.2,2.3-0.3,3.5-0.2c0.4-0.1,0.8-0.2,1.2-0.2c1,0,1.9,0.4,2.7,1.1
			c0,0,0.1,0,0.1,0c0.9-0.2,1.9-0.1,2.8,0.4c0.9,0.5,1.5,1.3,1.8,2.3c0.9,0.3,1.7,0.9,2.2,1.8c0.3,0.5,0.5,1.1,0.5,1.7
			c0.2,0.4,0.5,0.8,0.7,1.2c0.2,0.3,0.4,0.5,0.8,0.5c0.2,0,0.4,0,0.6-0.1C77.2,53.5,77.4,52.9,77.2,52.4z M84.4,56.4
			c0-0.4,0-0.9,0.1-1.3c-0.3,0.2-0.7,0.6-1,1.2c-0.9,1.5-0.9,2.8-0.7,3.1c0.2-0.1,0.8-0.4,1.4-1.4c0.1-0.2,0.2-0.4,0.3-0.6
			C84.5,57.1,84.5,56.8,84.4,56.4z M86.2,52.5c0-0.7-0.2-1.5-0.5-2.3c-0.4-1-1.1-2-1.9-2.8l-1.1,1.4c-0.2,0.3-0.5,0.4-0.8,0.4
			c-0.2,0-0.4-0.1-0.6-0.2c-0.4-0.3-0.5-1-0.2-1.4l1.1-1.5c-1.6-1.1-3.5-1.7-5.6-1.8l0.6,3.8c0,0.2,0,0.3-0.1,0.5
			c0.4,0.5,0.7,1,1,1.6c0.6-0.1,1.1-0.2,1.7-0.2c2.5,0,4.8,1,5.9,2.6C86,52.6,86.1,52.6,86.2,52.5z M87.9,57.5c0-1.7-0.7-2.8-1-3
			c-0.2,0.2-0.5,0.8-0.5,2c0,1.7,0.7,2.8,1,3C87.6,59.3,88,58.6,87.9,57.5z M51.2,67.4c-1.1,0-1.9,0.5-1.9,1c0,0.6,0.9,1,1.9,1
			c1.1,0,1.9-0.5,1.9-1C53.1,67.9,52.3,67.4,51.2,67.4z M63.3,64c0,1.6-0.3,3.1-0.7,4.3c-0.6-0.1-1.4-0.3-2.1-0.4
			c-1.4-0.2-2.6-0.3-3.5-0.3c-0.3-1.1-0.5-2.3-0.5-3.7c0-3.9,1.6-7,3.5-7S63.3,60.2,63.3,64z M61.3,63.5c0-0.5-0.1-1-0.4-1
			c-0.2,0-0.4,0.4-0.4,0.9s0.1,1,0.4,1S61.2,64,61.3,63.5z M61.1,65.1c0,0.9,0.2,1.6,0.6,1.6s0.7-0.7,0.7-1.5c0-0.9-0.2-1.6-0.6-1.6
			S61.2,64.2,61.1,65.1z M45.2,67.7c-0.9,0-2.2,0.1-3.5,0.3c-0.8,0.1-1.5,0.2-2.1,0.4c-0.5-1.2-0.7-2.7-0.7-4.3c0-3.9,1.6-7,3.5-7
			c1.9,0,3.5,3.1,3.5,7C45.7,65.4,45.5,66.6,45.2,67.7z M43.7,63.5c0-0.5-0.1-1-0.4-1s-0.4,0.4-0.4,0.9s0.1,1,0.4,1
			C43.5,64.4,43.7,64,43.7,63.5z M44.3,63.6c-0.4,0-0.7,0.7-0.7,1.5c0,0.9,0.2,1.6,0.6,1.6c0.4,0,0.7-0.7,0.7-1.5
			S44.7,63.6,44.3,63.6z"/>
	</g>
</g>
<path class="st4" d="M162.6,345.9L162.6,345.9c0,4.9-1.5,9-4.4,12.3l0,0c-3.3,3.7-8.1,6.1-14.4,7.4l0,0c0,1.2,0.5,1.7,1.6,1.7l0,0
	c1.8,0,4.1-0.6,6.8-1.7c2.7-1.2,4.7-2.5,6.2-4.1l0,0c2.9,2.9,4.4,6.8,4.4,11.5c0,4.8-1.4,8.5-4.1,11.3l0,0h-41.4
	c-2.4-3.5-3.6-7.4-3.6-11.7c0-4.3,0.8-7.9,2.5-10.8l0,0c6-1.2,11.5-3.3,16.4-6.4c4.9-3.1,7.4-6.4,7.4-9.9l0,0c0-0.9-0.2-1.7-0.6-2.3
	c-0.4-0.6-1-0.9-1.7-0.9l0,0c-1.5,0-2.3,0.8-2.3,2.4c0,1.6,0.5,2.7,1.6,3.5l0,0c-1.5,2.2-3.8,4.3-6.9,6.2c-3.1,1.9-6.2,3.2-9.2,4.1
	l0,0c-5.5-3.6-8.2-8.5-8.2-14.7c0-6.2,2.4-11.1,7.3-14.7l0,0c4.5-3.4,10.4-5,17.5-5c7.1,0,13,1.9,17.7,5.6l0,0
	C160.1,333.7,162.6,339.1,162.6,345.9z M188.3,367.4L188.3,367.4l-2.2,1c0,2.1,0.4,4.2,1.2,6.6l0,0c0.7,2.2,1.6,4.2,2.8,5.9l0,0
	c-3,3.1-7.3,4.7-12.7,4.7l0,0c-3.1,0-5.8-0.8-8.1-2.4l0,0c-2.6-1.8-3.9-4.3-3.9-7.3l0,0v-53.7c1.5-0.9,3.2-1.6,5.3-2.1
	c2.1-0.5,4.2-0.8,6.3-0.8l0,0c3.5,0,6.5,0.7,8.8,2.1l0,0c2.6,1.6,3.9,4,3.9,7l0,0v4.9c0,4.1-0.7,8.1-2.2,12l0,0
	c-0.3,0.4-0.8,1-1.5,1.7c-0.7,0.7-1.3,1.4-1.7,2c-0.4,0.6-0.6,1.1-0.6,1.6c0,0.4,0.4,0.9,1.1,1.2l0,0c2.4-2.2,4.3-4.7,5.6-7.3
	c1.4-2.6,2.6-6.1,3.8-10.5l0,0c0.4-0.1,0.9-0.1,1.4-0.2c0.5-0.1,1.4-0.2,2.6-0.4c1.2-0.2,2.1-0.3,2.6-0.3l0,0c4.7,0,8.4,1.1,11,3.2
	c2.6,2.2,4,5.1,4,8.9c0,3.8-1.2,7-3.6,9.7l0,0c-2.2,2.4-5.1,4.2-8.6,5.5l0,0c2.8,1.6,6.4,2.8,10.7,3.5l0,0c1.7,3,2.5,6.2,2.5,9.6
	s-1.1,6.2-3.2,8.5l0,0c-2.4,2.5-5.7,3.7-9.9,3.7s-7.7-1.6-10.4-4.9C190.5,377.5,188.9,373.1,188.3,367.4z M265.3,352.9v9
	c0,2.2,0.2,4,0.7,5.3c0.5,1.3,1.4,2.4,2.6,3.2l0,0c0,0.2,0.1,0.5,0.1,0.9l0,0v0.8c0,4.4-1.3,7.8-4,10.2l0,0
	c-2.3,2.1-5.2,3.2-8.7,3.2l0,0c-2.3,0-4.5-0.5-6.4-1.6c-1.9-1.1-3.3-2.7-4.1-4.8l0,0c-1,0-1.6,0.5-1.6,1.5l0,0
	c0,0.9,0.5,1.8,1.6,2.9l0,0c-2,1.3-5,2-9,2l0,0c-5.7,0-10.2-1.5-13.6-4.6c-3.4-3.1-5.1-7.4-5.1-12.9c0-5.5,1.8-9.8,5.4-12.9l0,0
	c3.3-2.7,7.5-4.1,12.8-4.1l0,0c1.8,0,3.5,0.1,5.1,0.4l0,0c1.1,0.2,1.7,0.3,1.8,0.4l0,0c0.1-0.3,0.2-0.6,0.2-0.8l0,0
	c0-0.8-0.7-1.3-2-1.6c-1.3-0.3-3.1-0.4-5.3-0.4l0,0c-4.6,0-8.6,0.9-11.9,2.8l0,0c-1.5-2.6-2.3-5.8-2.3-9.7l0,0
	c0-2.2,0.3-3.9,0.8-4.9l0,0c2.2-1,5-1.9,8.4-2.7c3.4-0.8,7-1.2,10.8-1.2l0,0c7.8,0,13.7,1.7,17.7,5.1
	C263.3,341.8,265.3,346.7,265.3,352.9L265.3,352.9z M241.4,364.2L241.4,364.2c-1.3,0-1.9,0.6-1.9,1.7l0,0c0,1.1,0.8,1.6,2.3,1.6l0,0
	c1,0,1.8-0.3,2.3-0.8c0.5-0.5,0.7-1.4,0.7-2.6l0,0C244.8,364.2,243.7,364.2,241.4,364.2z M345.3,352.8l-0.2,9.2
	c0,2.2,0.2,4.1,0.7,5.5c0.5,1.4,1.4,2.5,2.6,3.3l0,0c0,0.2,0.1,0.4,0.1,0.8l0,0v0.7c0,4.2-1.2,7.5-3.7,9.9c-2.4,2.4-5.6,3.5-9.5,3.5
	c-3.9,0-7-1.1-9.4-3.2l0,0c-2.8-2.4-4.2-6.2-4.2-11.3l0,0v-14.5c0-2.1-0.7-3.1-2-3.1l0,0c-0.5,0-0.9,0.1-1.2,0.4l0,0l0.8,6.9v10.4
	c0,4.2,0.7,7.3,2.1,9.5l0,0c-1.5,1.6-3.3,2.8-5.5,3.7c-2.2,0.9-4.4,1.3-6.7,1.3l0,0c-3.7,0-6.5-0.9-8.6-2.7l0,0
	c-2.4-2.1-3.7-5.5-3.7-10.2l0,0v-16.1c0-2.1-0.7-3.1-2-3.1l0,0c-0.5,0-0.9,0.1-1.3,0.4l0,0l0.8,6.9v12.2c0,3.4,0.5,6.1,1.4,8l0,0
	c-3,3.1-7.2,4.7-12.7,4.7l0,0c-3.2,0-5.9-0.8-8.1-2.4l0,0c-2.5-1.9-3.8-4.4-3.8-7.6l0,0v-22c-1.8-2.6-2.7-5.7-2.7-9.4
	c0-3.7,0.9-7,2.7-9.7l0,0h11.1c2.2,0,4,0.8,5.6,2.4l0,0c-1.3,1.3-2,2.3-2,3.1l0,0c0,1,0.5,1.4,1.6,1.4l0,0c1.3-2.3,3.2-4.2,5.6-5.6
	l0,0c2.8-1.6,6-2.4,9.7-2.4l0,0c2.8,0,5.3,0.6,7.4,1.8c2.1,1.2,3.7,2.6,4.8,4.1l0,0c1.5-2,3.3-3.4,5.6-4.4c2.3-1,4.7-1.5,7.3-1.5
	l0,0c5.6,0,9.9,1.7,12.9,5.2l0,0C343.8,342.1,345.3,346.8,345.3,352.8L345.3,352.8z M396.6,352.9v9c0,2.2,0.2,4,0.7,5.3
	c0.5,1.3,1.4,2.4,2.6,3.2l0,0c0,0.2,0.1,0.5,0.1,0.9l0,0v0.8c0,4.4-1.3,7.8-4,10.2l0,0c-2.3,2.1-5.2,3.2-8.7,3.2l0,0
	c-2.3,0-4.5-0.5-6.4-1.6c-1.9-1.1-3.3-2.7-4.1-4.8l0,0c-1,0-1.6,0.5-1.6,1.5l0,0c0,0.9,0.5,1.8,1.6,2.9l0,0c-2,1.3-5,2-9,2l0,0
	c-5.7,0-10.2-1.5-13.6-4.6c-3.4-3.1-5.1-7.4-5.1-12.9c0-5.5,1.8-9.8,5.4-12.9l0,0c3.3-2.7,7.5-4.1,12.8-4.1l0,0
	c1.8,0,3.5,0.1,5.1,0.4l0,0c1.1,0.2,1.7,0.3,1.8,0.4l0,0c0.1-0.3,0.2-0.6,0.2-0.8l0,0c0-0.8-0.7-1.3-2-1.6c-1.3-0.3-3.1-0.4-5.3-0.4
	l0,0c-4.6,0-8.6,0.9-11.9,2.8l0,0c-1.5-2.6-2.3-5.8-2.3-9.7l0,0c0-2.2,0.3-3.9,0.8-4.9l0,0c2.2-1,5-1.9,8.4-2.7
	c3.4-0.8,7-1.2,10.8-1.2l0,0c7.8,0,13.7,1.7,17.7,5.1C394.6,341.8,396.6,346.7,396.6,352.9L396.6,352.9z M372.7,364.2L372.7,364.2
	c-1.3,0-1.9,0.6-1.9,1.7l0,0c0,1.1,0.8,1.6,2.3,1.6l0,0c1,0,1.8-0.3,2.3-0.8c0.5-0.5,0.7-1.4,0.7-2.6l0,0
	C376,364.2,374.9,364.2,372.7,364.2z"/>
<g>
	<path class="st4" d="M252.9,224.9c0,1.5,2.2,2.6,4.9,2.6c2.7,0,4.9-1.2,4.9-2.6c0-1.5-2.2-2.6-4.9-2.6
		C255.1,222.2,252.9,223.4,252.9,224.9z"/>
	<path class="st4" d="M272.3,223c2.4,0,5.5,0.2,9,0.7c2,0.3,3.8,0.6,5.4,0.9c1.2-3,1.9-6.8,1.9-11c0-9.9-4-17.9-8.8-17.9
		s-8.8,8-8.8,17.9C270.9,217.1,271.4,220.3,272.3,223z M285,212.4c0.9,0,1.6,1.9,1.5,4.1c-0.1,2.2-0.9,4-1.8,3.9
		c-0.9,0-1.6-1.9-1.5-4.1C283.3,214.1,284.1,212.4,285,212.4z M282.6,209.8c0.6,0,1,1.1,0.9,2.5c0,1.3-0.5,2.4-1.1,2.3
		c-0.6,0-1-1.1-0.9-2.5C281.5,210.9,282,209.8,282.6,209.8z"/>
	<path class="st4" d="M242.8,239.3c0.1,0.1,0.3,0.2,0.4,0.2c0,0,0.1,0,0.1,0c0.2,0,0.3-0.2,0.4-0.4c0.3-1.4,1-2.9,2.2-4.3
		c1.1-1.2,2.3-2.1,3.6-2.6c0.2-0.1,0.3-0.2,0.3-0.4c0-0.2-0.1-0.4-0.3-0.5c-0.6-0.3-1.2-0.5-1.9-0.5c-1.5,0-3,0.8-4.1,2
		C241.8,234.9,241.5,237.6,242.8,239.3z"/>
	<path class="st4" d="M233.5,223.7c3.5-0.5,6.7-0.7,9-0.7c0.8-2.7,1.3-5.9,1.3-9.4c0-9.9-4-17.9-8.8-17.9c-4.9,0-8.8,8-8.8,17.9
		c0,4.2,0.7,8,1.9,11C229.7,224.3,231.6,224,233.5,223.7z M240.3,212.4c0.9,0.1,1.6,1.9,1.5,4.1c-0.1,2.2-0.9,4-1.8,3.9
		c-0.9,0-1.6-1.9-1.5-4.1C238.5,214.1,239.4,212.4,240.3,212.4z M237.8,209.8c0.6,0,1,1.1,0.9,2.5c0,1.3-0.5,2.4-1.1,2.3
		c-0.6,0-1-1.1-0.9-2.5C236.8,210.9,237.3,209.8,237.8,209.8z"/>
	<path class="st4" d="M325.2,190.1c-3.8,2-10.2,3.9-10.2,3.9c-0.5,0.1-1,0.3-1.6,0.4c-0.1,0-0.1,0-0.2,0.1c-0.6,0.2-1.2,0.3-1.8,0.5
		c0,0,0,0-0.1,0c-0.6,0.1-1.1,0.3-1.7,0.4c-0.2,0-0.3,0.1-0.5,0.1c-0.6,0.1-1.3,0.3-2,0.4c-0.7,0.1-1.4,0.3-2.1,0.4
		c0.8-4.9-1.5-10.5-6.2-13.9c-5.1-3.6-13.2-4.6-20.6,3.7c-0.9,1.1-0.9,2.7,0.2,3.6c1.1,0.9,2.7,0.8,3.6-0.2c4.4-4.9,9.5-6,13.8-2.9
		c3.3,2.3,5.5,7.1,3.5,10.7c-2.3,0.4-4.6,0.7-7,1c-0.3,0-0.5,0.1-0.8,0.1c-0.5,0.1-1,0.1-1.4,0.2c-0.2,0-0.3,0-0.5,0.1
		c-0.4-0.6-0.5-1.2-0.4-1.7c0.2-0.6,0.8-1.1,1.4-1.4c1.3-0.7,1.8-2.3,1.1-3.6c-0.7-1.2-2.3-1.5-3.6-0.9c-1.6,0.8-2.5,1.9-3.1,2.8
		c2.7,1.9,4.8,5.3,6.1,9.7c6.2-0.7,12-1.6,17.1-2.7c6.6-1.4,11.9-2.9,15.8-4.7c-6.7,25.8-23.1,45.7-43.7,55c-3.4-4.8-8-9.8-15-12.9
		c-1.3-2.4-3.9-4-6.8-4h-2c-4.3,0-7.8,3.4-7.8,7.8c0,4.4,2.6,9.9,7.8,9.9h2c0.7,0,1.3-0.1,1.8-0.2c1.5,0.8,2.9,1.7,4.1,2.8l-9.1,4.2
		c-0.1,0-0.1,0.1-0.2,0.1c-0.1,0-0.1-0.1-0.2-0.1l-10.1-4.6c-1.3-0.3-2.1,2.8-2.1,5.5c0,2.1,0.8,6,2.1,5.7l9.9-4
		c0.1,0,0.3-0.1,0.4-0.2c0.1,0.1,0.3,0.1,0.4,0.2l9.9,4c1.3,0.3,2.1-3.6,2.1-5.7c0-0.6,0-1.2-0.1-1.8c1.6,2.1,3,4.4,4.6,6.8
		c0.9,1.6,1.9,3.2,3,4.7c-5.5,2.1-12.8,3.6-21.3,3.6c-18.8,0-32-7-32-13.3V254c5.8,3,11.9,5.2,18.2,6.5c0-0.5,0-0.8,0-0.9
		c0-1.5,0.2-2.9,0.5-4.3c-14.2-3.1-27.1-11.1-37.2-22.6c2.3-2.8,4.2-6.5,4.2-11.6c0-8.6-5.3-13.2-9.2-16.3c-1-0.5-1.9-1-2.4-1.5
		c-2.3-2-1.5-3.7-0.6-3.5c1.5,0.4,3,0.7,4.7,1.1l0,0c0.1,0,0.3,0.1,0.5,0.1c0.6,0.1,1.2,0.2,1.8,0.4c0.3,0.1,0.6,0.1,0.8,0.2
		c0.1,0,0.3,0.1,0.4,0.1c0,0,0,0,0,0c6.1,1.1,13,2,20.4,2.7c0.5-1.8,1.1-3.5,1.9-5c-0.7-0.1-1.5-0.1-2.2-0.2c-0.1,0-0.2,0-0.3,0
		c-1.2-0.1-2.3-0.2-3.5-0.3l-0.1,0l-6.4-0.8h0c0,0-4.2-0.6-6.2-0.9h-1.2c1.1-7-3.3-10.9-6.2-13c-1.2-0.9-2.7-1.4-4.2-1.7
		c-2.3-0.7-5.5,0.1-5.5,0.1c-2.8,0.7-4.8,2.2-5.9,3.2c0,0-2.3,2.3-3.5,4.6c-0.9,1.7-1.8,5.4-1.8,5.4c-0.2,1-0.2,2-0.2,3
		c0,6,2.6,10.1,5.5,13.1c1.9,4.6,4.2,8.9,6.8,13c-0.6,0.5-1.3,1.1-2.3,1.9c-1.1,0.8-2.3,1.8-3.5,2.9c-10.1,1.4-21.3,5.5-25.1,16.5
		c-3.2,9.3,15.2,13.7,17.5,6.9c0.5-1.4,1.1-2.7,1.9-4c1.7,5.8,6.1,9.2,9.2,11.7c4,3.1,4.4,3.9,4.4,5.5c0,3.1,1.9,5.9,4.9,6.9
		c5,1.6,9.6-2.1,9.6-6.9c0-9.2-6-13.9-10-17c-4-3.1-4.4-3.9-4.4-5.5c0-1.7,0.4-2.4,4.4-5.5c0.7-0.5,1.4-1.1,2.1-1.7
		c1.8,2,3.7,4,5.7,5.9c3.6,3.4,7.5,6.3,11.5,8.8v8.5c0,5.1,4,9.7,10.5,13c-1.7,3.7-6.1,12.3-13.1,17.2c-1.5,1.1-3.1,2.9-2.4,4.5
		c1.3,2.8,4.4,1.8,7.8,4c3.2,2.1,6.6,4,8.5,4c4.5-0.1,8.6-6.2,10.2-14.9c1-5.3,1.7-8.7,2.1-10.6c4.1,0.8,8.7,1.2,13.4,1.2
		c3.6,0,7.1-0.2,10.3-0.7c0.5,2,1.3,5,2.3,9.2c2.1,8.7,6.5,14.8,11,14.9c1.9,0,5.2-1.9,8.3-4c3.2-2.2,6.4-1.2,7.5-4
		c0.6-1.6-1.1-3.5-2.6-4.5c-6.2-4.2-10.6-11-12.9-15.2c0.3-0.2,0.2-0.1,0.5-0.3c2.7,3.1,6.1,5.7,10.8,7c1.9,0.5,3.7,0.8,5.4,0.8
		c8.7,0,14.5-6.3,16.5-11.4l0.2-0.4l0.1-0.5c0.9-3.8-1.1-7.8-4.8-8.9c-3.8-1.2-7.8,1-8.9,4.8c-1.4,2.7-3.7,2.1-4.6,1.8
		c-1.2-0.3-2.2-1-3.3-2c0.9-1.6,1.3-3.2,1.3-5v-8c4.3-2.6,8.4-5.7,12.2-9.3c1.3-1.2,2.5-2.4,3.7-3.7c5.9,3.6,13.4,9.8,14.4,19.1
		c0.8,7.1,19.7,6.7,18.5-3.1c-1.7-13.8-15.9-20.2-26.8-23.2c8.2-10.7,14-23.5,17.2-37.8c0.3-1.3,0.1-2.6-0.9-3.5
		C328.2,189.5,326.5,189.4,325.2,190.1z M173.8,253.7c-1.8,0.5-3.7,0.5-5.6,0c-2.7-0.7-5-2.3-6.2-4.4c-0.3-0.6-0.1-1.3,0.4-1.6
		c0.2-0.1,0.4-0.2,0.6-0.2c0.4,0,0.8,0.2,1,0.6c0.9,1.5,2.7,2.7,4.7,3.3c1.5,0.4,3,0.4,4.4,0c0.6-0.2,1.3,0.2,1.5,0.8
		C174.8,252.8,174.5,253.5,173.8,253.7z M194.5,234.4c-3.9,3-6.2,5.1-6.2,9.2c0,4.2,2.4,6.2,6.2,9.2c3.8,3,8.2,6.4,8.2,13.3
		c0,1.4-1.1,2.6-2.6,2.6s-2.6-1.1-2.6-2.6c0-4.2-2.4-6.2-6.2-9.2c-3.8-3-8.2-6.4-8.2-13.3c0-6.9,4.4-10.3,8.2-13.3
		c3.9-3,6.2-5.1,6.2-9.2c0-4.2-2.4-6.2-6.2-9.2c-3.8-3-8.2-6.4-8.2-13.3c0-4,1.5-6.8,3.5-9.1l0,0c0,0,2.4-2.8,6.1-2.8
		c0.1,0,0.1,0,0.2,0c4.4,0.1,7.9,3.6,7.9,7.9c0,0.4,0,0.8-0.1,1.2c-1.8-0.4-3.4-0.8-5-1.2c0,0,0,0,0,0c0-1.5-1.3-2.8-2.9-2.8
		c-0.8,0-1.5,0.4-2.2,1c-1.5,1.6-2.3,3.4-2.3,5.8c0,4.2,2.4,6.2,6.2,9.2c3.8,3,8.2,6.4,8.2,13.3C202.7,228,198.3,231.4,194.5,234.4z
		 M225.9,296.4c-0.2,0.2-0.4,0.3-0.7,0.4c-0.2,0-0.5,0-0.6-0.2c-2.5-1.9-5.5-3.1-8.8-3.4c-0.5,0-0.9-0.5-0.9-1c0-0.5,0.5-0.9,1-0.9
		c3.7,0.3,7,1.6,9.8,3.8C226.1,295.4,226.2,296,225.9,296.4z M279.1,294.2c2.6-2.1,6-3.4,9.6-3.8c0.5,0,1,0.3,1,0.9s-0.3,1-0.8,1
		c-3.3,0.3-6.2,1.5-8.6,3.4c-0.2,0.2-0.4,0.2-0.6,0.2c-0.3,0-0.5-0.1-0.7-0.4C278.7,295.1,278.7,294.5,279.1,294.2z M285.6,254.4
		v5.1c-0.5-0.7-1-1.5-1.5-2.4c-0.3-0.5-0.6-1-0.9-1.5C284,255.2,284.8,254.9,285.6,254.4z M291.4,271c7.3,2,10-4.1,10.2-4.8
		c0.5-1.3,2-1.9,3.3-1.4c1.3,0.5,1.9,2,1.4,3.3c-1.3,3.2-5.3,8.4-12.2,8.4c-1.3,0-2.7-0.2-4.2-0.6c-7-1.9-10.7-7.9-14.2-13.7
		c-4.2-6.8-8.5-13.9-18.6-16.4c-1.4-0.3-2.2-1.7-1.9-3.1c0.3-1.4,1.7-2.2,3.1-1.9c12.1,3,17.2,11.3,21.7,18.7
		C283.5,265,286.4,269.6,291.4,271z M336.7,257.5c-1.6,1.8-4.2,2.9-7,3c-2,0.1-3.9-0.3-5.5-1.2c-0.6-0.3-0.8-1-0.5-1.6
		c0.3-0.6,1-0.8,1.6-0.5c1.2,0.6,2.7,1,4.3,0.9c2.1-0.1,4.1-0.9,5.3-2.2c0.3-0.3,0.7-0.4,1.1-0.4c0.2,0,0.4,0.1,0.6,0.3
		C337.1,256.2,337.1,257,336.7,257.5z"/>
	<path class="st4" d="M257.6,188c-6.6,0-12,5.4-12,12c0,6.6,5.4,12,12,12c6.6,0,12-5.4,12-12C269.6,193.4,264.2,188,257.6,188z
		 M257.4,206.9c-3.8,0-6.9-3.1-6.9-6.9s3.1-6.9,6.9-6.9c3.8,0,6.9,3.1,6.9,6.9S261.2,206.9,257.4,206.9z"/>
	<path class="st4" d="M281.8,139.9c-0.8-3.5-3.7-6.4-7.2-7.2c-7-1.6-13.1,4.5-11.5,11.5c0.8,3.5,3.7,6.4,7.2,7.2
		C277.3,153.1,283.4,147,281.8,139.9z M271.4,146.7c-1.7-0.4-3.1-1.8-3.5-3.5c-0.8-3.5,2.2-6.4,5.7-5.7c1.7,0.4,3.1,1.8,3.5,3.5
		C277.8,144.5,274.8,147.5,271.4,146.7z"/>
	<polygon class="st4" points="214,194 214,194 213.7,193.9 	"/>
	<path class="st4" d="M318.8,164.7c-4.3-7.5-14.9-10.6-29.8-8.6c-2.1,0.3-4.3,0.6-6.6,1.1c-0.6-1.8-1.3-3.5-1.9-5.1
		c-1.3,1-2.7,1.8-4.3,2.2c0.5,1.3,1,2.7,1.4,4c-6.4,1.6-13.3,4-20,7c-6.9-3-13.6-5.4-20-7c4.8-14.6,12.2-24,20-24
		c1.3,0,2.7,0.3,4,0.8c1-1.3,2.1-2.6,3.5-3.5c-2.4-1.4-5-2.1-7.5-2.1c-10.2,0-19.2,10.7-24.7,27.7c-2.2-0.5-4.5-0.8-6.6-1.1
		c-14.9-1.9-25.5,1.1-29.8,8.6c-2.2,3.8-2.6,8.3-1.3,13.4c0.4,0.1,0.8,0.1,1.1,0.2c1.7,0.4,3.2,0.9,4.4,1.6c-2-5.2-2-9.6-0.1-12.9
		c2.6-4.3,8.8-6.7,17.4-6.7c2.4,0,4.8,0.2,7.5,0.5c1.9,0.2,3.8,0.5,5.8,1c-1.8,6.2-3,13.3-3.8,20.8c-5,3.6-9.6,7.4-13.7,11.3
		l6.3,0.7c2.1-1.9,4.4-3.8,6.7-5.6c-0.1,2.5-0.2,5-0.3,7.6c1.4-2,3.2-3.4,5.1-4.2c0.1-2.5,0.3-4.9,0.5-7.4c3.8-2.7,8-5.3,12.3-7.8
		c4.3-2.4,8.6-4.8,13-6.7c4.3,1.9,8.6,4.2,13,6.7c2.3,1.4,4.5,2.8,6.7,4.2c1.3-1.2,2.7-2.2,4-3c-2.6-1.8-5.4-3.4-8.3-5.2
		c-3.2-1.8-6.4-3.5-9.6-5.1c5.3-2.2,10.6-3.8,15.5-5.1c1.2,4.7,2.3,9.6,3,15c1.7-0.9,3.3-1.5,4.8-1.8c-0.8-5.1-1.8-9.9-3-14.3
		c1.9-0.5,3.8-0.8,5.8-1c2.7-0.3,5.3-0.5,7.5-0.5c8.6,0,14.9,2.2,17.4,6.7c2.5,4.4,1.4,11.1-2.9,18.6c-0.8,1.4-1.7,2.8-2.8,4.3
		c0.1,0.4,0.2,0.8,0.3,1.3c0.4-0.1,0.9-0.2,1.3-0.3l3.5-0.9c0,0,0.4-0.1,1.1-0.3c0.8-1.2,1.5-2.5,2.1-3.7
		C321.4,177.7,322,170.4,318.8,164.7z M242.1,173.1c-3,1.9-6.2,3.8-9.1,5.8c0.8-5.8,1.8-11,3.2-16c5.1,1.3,10.2,3,15.5,5.1
		C248.5,169.5,245.3,171.3,242.1,173.1z"/>
</g>
</svg>
